<svg width="157" height="24" viewBox="0 0 157 24" fill="none" xmlns="http://www.w3.org/2000/svg">
<path d="M9.08001 17L5.57601 10.64H4.59201V17H0.488007V0.152008H7.37601C8.70401 0.152008 9.83201 0.384008 10.76 0.848008C11.704 1.31201 12.408 1.95201 12.872 2.76801C13.336 3.56801 13.568 4.46401 13.568 5.45601C13.568 6.57601 13.248 7.57601 12.608 8.45601C11.984 9.33601 11.056 9.96001 9.82401 10.328L13.712 17H9.08001ZM4.59201 7.73601H7.13601C7.88801 7.73601 8.44801 7.55201 8.81601 7.18401C9.20001 6.81601 9.39201 6.29601 9.39201 5.62401C9.39201 4.98401 9.20001 4.48001 8.81601 4.11201C8.44801 3.74401 7.88801 3.56001 7.13601 3.56001H4.59201V7.73601Z" fill="#1E6732"/>
<path d="M28.7683 10.088C28.7683 10.472 28.7443 10.872 28.6963 11.288H19.4083C19.4723 12.12 19.7363 12.76 20.2003 13.208C20.6803 13.64 21.2643 13.856 21.9523 13.856C22.9763 13.856 23.6883 13.424 24.0883 12.56H28.4563C28.2323 13.44 27.8243 14.232 27.2323 14.936C26.6563 15.64 25.9283 16.192 25.0483 16.592C24.1683 16.992 23.1843 17.192 22.0963 17.192C20.7843 17.192 19.6163 16.912 18.5923 16.352C17.5683 15.792 16.7683 14.992 16.1923 13.952C15.6163 12.912 15.3283 11.696 15.3283 10.304C15.3283 8.91201 15.6083 7.69601 16.1683 6.65601C16.7443 5.61601 17.5443 4.81601 18.5683 4.25601C19.5923 3.69601 20.7683 3.41601 22.0963 3.41601C23.3923 3.41601 24.5443 3.68801 25.5523 4.23201C26.5603 4.77601 27.3443 5.55201 27.9043 6.56001C28.4803 7.56801 28.7683 8.74401 28.7683 10.088ZM24.5683 9.00801C24.5683 8.30401 24.3283 7.74401 23.8483 7.32801C23.3683 6.91201 22.7683 6.70401 22.0483 6.70401C21.3603 6.70401 20.7763 6.90401 20.2963 7.30401C19.8323 7.70401 19.5443 8.27201 19.4323 9.00801H24.5683Z" fill="#1E6732"/>
<path d="M30.1173 10.328C30.1173 9.00001 30.3893 7.81601 30.9333 6.77601C31.4933 5.73601 32.2373 4.92801 33.1653 4.35201C34.1093 3.76001 35.1333 3.46401 36.2373 3.46401C37.0853 3.46401 37.8453 3.61601 38.5173 3.92001C39.1893 4.20801 39.7333 4.61601 40.1493 5.14401V3.60801H44.2533V23.384H40.1493V15.32C39.6853 15.88 39.1173 16.328 38.4453 16.664C37.7893 17 37.0373 17.168 36.1893 17.168C35.1013 17.168 34.0933 16.88 33.1653 16.304C32.2373 15.728 31.4933 14.92 30.9333 13.88C30.3893 12.84 30.1173 11.656 30.1173 10.328ZM40.1493 10.304C40.1493 9.58401 40.0053 8.98401 39.7173 8.50401C39.4453 8.00801 39.0853 7.64001 38.6373 7.40001C38.1893 7.14401 37.7173 7.01601 37.2213 7.01601C36.7413 7.01601 36.2773 7.14401 35.8293 7.40001C35.3813 7.64001 35.0133 8.00801 34.7253 8.50401C34.4373 9.00001 34.2933 9.60801 34.2933 10.328C34.2933 11.048 34.4373 11.656 34.7253 12.152C35.0133 12.632 35.3813 13 35.8293 13.256C36.2773 13.496 36.7413 13.616 37.2213 13.616C37.7013 13.616 38.1653 13.496 38.6133 13.256C39.0773 13 39.4453 12.624 39.7173 12.128C40.0053 11.632 40.1493 11.024 40.1493 10.304Z" fill="#1E6732"/>
<path d="M60.4464 3.60801V17H56.3424V15.176C55.9264 15.768 55.3584 16.248 54.6384 16.616C53.9344 16.968 53.1504 17.144 52.2864 17.144C51.2624 17.144 50.3584 16.92 49.5744 16.472C48.7904 16.008 48.1824 15.344 47.7504 14.48C47.3184 13.616 47.1024 12.6 47.1024 11.432V3.60801H51.1824V10.88C51.1824 11.776 51.4144 12.472 51.8784 12.968C52.3424 13.464 52.9664 13.712 53.7504 13.712C54.5504 13.712 55.1824 13.464 55.6464 12.968C56.1104 12.472 56.3424 11.776 56.3424 10.88V3.60801H60.4464Z" fill="#1E6732"/>
<path d="M76.0183 10.088C76.0183 10.472 75.9943 10.872 75.9463 11.288H66.6583C66.7223 12.12 66.9863 12.76 67.4503 13.208C67.9303 13.64 68.5143 13.856 69.2023 13.856C70.2263 13.856 70.9383 13.424 71.3383 12.56H75.7063C75.4823 13.44 75.0743 14.232 74.4823 14.936C73.9063 15.64 73.1783 16.192 72.2983 16.592C71.4183 16.992 70.4343 17.192 69.3463 17.192C68.0343 17.192 66.8663 16.912 65.8423 16.352C64.8183 15.792 64.0183 14.992 63.4423 13.952C62.8663 12.912 62.5783 11.696 62.5783 10.304C62.5783 8.91201 62.8583 7.69601 63.4183 6.65601C63.9943 5.61601 64.7943 4.81601 65.8183 4.25601C66.8423 3.69601 68.0183 3.41601 69.3463 3.41601C70.6423 3.41601 71.7943 3.68801 72.8023 4.23201C73.8103 4.77601 74.5943 5.55201 75.1543 6.56001C75.7303 7.56801 76.0183 8.74401 76.0183 10.088ZM71.8183 9.00801C71.8183 8.30401 71.5783 7.74401 71.0983 7.32801C70.6183 6.91201 70.0183 6.70401 69.2983 6.70401C68.6103 6.70401 68.0263 6.90401 67.5463 7.30401C67.0823 7.70401 66.7943 8.27201 66.6823 9.00801H71.8183Z" fill="#1E6732"/>
<path d="M83.6313 17.192C82.4633 17.192 81.4233 16.992 80.5113 16.592C79.5993 16.192 78.8793 15.648 78.3513 14.96C77.8233 14.256 77.5273 13.472 77.4633 12.608H81.5193C81.5673 13.072 81.7833 13.448 82.1673 13.736C82.5513 14.024 83.0233 14.168 83.5833 14.168C84.0953 14.168 84.4873 14.072 84.7593 13.88C85.0473 13.672 85.1913 13.408 85.1913 13.088C85.1913 12.704 84.9913 12.424 84.5913 12.248C84.1913 12.056 83.5433 11.848 82.6473 11.624C81.6873 11.4 80.8873 11.168 80.2473 10.928C79.6073 10.672 79.0553 10.28 78.5913 9.75201C78.1273 9.20801 77.8953 8.48001 77.8953 7.56801C77.8953 6.80001 78.1033 6.10401 78.5193 5.48001C78.9513 4.84001 79.5753 4.33601 80.3913 3.96801C81.2233 3.60001 82.2073 3.41601 83.3433 3.41601C85.0233 3.41601 86.3433 3.83201 87.3033 4.66401C88.2793 5.49601 88.8393 6.60001 88.9833 7.97601H85.1913C85.1273 7.51201 84.9193 7.14401 84.5673 6.87201C84.2313 6.60001 83.7833 6.46401 83.2233 6.46401C82.7433 6.46401 82.3753 6.56001 82.1193 6.75201C81.8633 6.92801 81.7353 7.17601 81.7353 7.49601C81.7353 7.88001 81.9353 8.16801 82.3353 8.36001C82.7513 8.55201 83.3913 8.74401 84.2553 8.93601C85.2473 9.19201 86.0553 9.44801 86.6793 9.70401C87.3033 9.94401 87.8473 10.344 88.3113 10.904C88.7913 11.448 89.0393 12.184 89.0553 13.112C89.0553 13.896 88.8313 14.6 88.3833 15.224C87.9513 15.832 87.3193 16.312 86.4873 16.664C85.6713 17.016 84.7193 17.192 83.6313 17.192Z" fill="#1E6732"/>
<path d="M99.0301 13.52V17H96.9421C95.4541 17 94.2941 16.64 93.4621 15.92C92.6301 15.184 92.2141 13.992 92.2141 12.344V7.01601H90.5821V3.60801H92.2141V0.344008H96.3181V3.60801H99.0061V7.01601H96.3181V12.392C96.3181 12.792 96.4141 13.08 96.6061 13.256C96.7981 13.432 97.1181 13.52 97.5661 13.52H99.0301Z" fill="#1E6732"/>
<path d="M105.42 3.44001V6.84801H110.916V10.016H105.42V13.712H111.636V17H101.316V0.152008H111.636V3.44001H105.42Z" fill="#1E6732"/>
<path d="M113.485 10.28C113.485 8.90401 113.741 7.69601 114.253 6.65601C114.781 5.61601 115.493 4.81601 116.389 4.25601C117.285 3.69601 118.285 3.41601 119.389 3.41601C120.333 3.41601 121.157 3.60801 121.861 3.99201C122.581 4.37601 123.133 4.88001 123.517 5.50401V3.60801H127.621V17H123.517V15.104C123.117 15.728 122.557 16.232 121.837 16.616C121.133 17 120.309 17.192 119.365 17.192C118.277 17.192 117.285 16.912 116.389 16.352C115.493 15.776 114.781 14.968 114.253 13.928C113.741 12.872 113.485 11.656 113.485 10.28ZM123.517 10.304C123.517 9.28001 123.229 8.47201 122.653 7.88001C122.093 7.28801 121.405 6.99201 120.589 6.99201C119.773 6.99201 119.077 7.28801 118.501 7.88001C117.941 8.45601 117.661 9.25601 117.661 10.28C117.661 11.304 117.941 12.12 118.501 12.728C119.077 13.32 119.773 13.616 120.589 13.616C121.405 13.616 122.093 13.32 122.653 12.728C123.229 12.136 123.517 11.328 123.517 10.304Z" fill="#1E6732"/>
<path d="M136.038 17.192C134.87 17.192 133.83 16.992 132.918 16.592C132.006 16.192 131.286 15.648 130.758 14.96C130.23 14.256 129.934 13.472 129.87 12.608H133.926C133.974 13.072 134.19 13.448 134.574 13.736C134.958 14.024 135.43 14.168 135.99 14.168C136.502 14.168 136.894 14.072 137.166 13.88C137.454 13.672 137.598 13.408 137.598 13.088C137.598 12.704 137.398 12.424 136.998 12.248C136.598 12.056 135.95 11.848 135.054 11.624C134.094 11.4 133.294 11.168 132.654 10.928C132.014 10.672 131.462 10.28 130.998 9.75201C130.534 9.20801 130.302 8.48001 130.302 7.56801C130.302 6.80001 130.51 6.10401 130.926 5.48001C131.358 4.84001 131.982 4.33601 132.798 3.96801C133.63 3.60001 134.614 3.41601 135.75 3.41601C137.43 3.41601 138.75 3.83201 139.71 4.66401C140.686 5.49601 141.246 6.60001 141.39 7.97601H137.598C137.534 7.51201 137.326 7.14401 136.974 6.87201C136.638 6.60001 136.19 6.46401 135.63 6.46401C135.15 6.46401 134.782 6.56001 134.526 6.75201C134.27 6.92801 134.142 7.17601 134.142 7.49601C134.142 7.88001 134.342 8.16801 134.742 8.36001C135.158 8.55201 135.798 8.74401 136.662 8.93601C137.654 9.19201 138.462 9.44801 139.086 9.70401C139.71 9.94401 140.254 10.344 140.718 10.904C141.198 11.448 141.446 12.184 141.462 13.112C141.462 13.896 141.238 14.6 140.79 15.224C140.358 15.832 139.726 16.312 138.894 16.664C138.078 17.016 137.126 17.192 136.038 17.192Z" fill="#1E6732"/>
<path d="M156.596 10.088C156.596 10.472 156.572 10.872 156.524 11.288H147.236C147.3 12.12 147.564 12.76 148.028 13.208C148.508 13.64 149.092 13.856 149.78 13.856C150.804 13.856 151.516 13.424 151.916 12.56H156.284C156.06 13.44 155.652 14.232 155.06 14.936C154.484 15.64 153.756 16.192 152.876 16.592C151.996 16.992 151.012 17.192 149.924 17.192C148.612 17.192 147.444 16.912 146.42 16.352C145.396 15.792 144.596 14.992 144.02 13.952C143.444 12.912 143.156 11.696 143.156 10.304C143.156 8.91201 143.436 7.69601 143.996 6.65601C144.572 5.61601 145.372 4.81601 146.396 4.25601C147.42 3.69601 148.596 3.41601 149.924 3.41601C151.22 3.41601 152.372 3.68801 153.38 4.23201C154.388 4.77601 155.172 5.55201 155.732 6.56001C156.308 7.56801 156.596 8.74401 156.596 10.088ZM152.396 9.00801C152.396 8.30401 152.156 7.74401 151.676 7.32801C151.196 6.91201 150.596 6.70401 149.876 6.70401C149.188 6.70401 148.604 6.90401 148.124 7.30401C147.66 7.70401 147.372 8.27201 147.26 9.00801H152.396Z" fill="#1E6732"/>
</svg>
