<svg width="54" height="52" viewBox="0 0 54 52" fill="none" xmlns="http://www.w3.org/2000/svg">
<rect width="54" height="52" rx="4" fill="#F9F9F9"/>
<path d="M21.44 31L16.768 22.52H15.456V31H9.984V8.53601H19.168C20.9387 8.53601 22.4427 8.84534 23.68 9.46401C24.9387 10.0827 25.8773 10.936 26.496 12.024C27.1147 13.0907 27.424 14.2853 27.424 15.608C27.424 17.1013 26.9973 18.4347 26.144 19.608C25.312 20.7813 24.0747 21.6133 22.432 22.104L27.616 31H21.44ZM15.456 18.648H18.848C19.8507 18.648 20.5973 18.4027 21.088 17.912C21.6 17.4213 21.856 16.728 21.856 15.832C21.856 14.9787 21.6 14.3067 21.088 13.816C20.5973 13.3253 19.8507 13.08 18.848 13.08H15.456V18.648Z" fill="#1E6732"/>
<rect x="24" y="37" width="21" height="6" fill="#FAB443"/>
<circle cx="13" cy="40" r="3" fill="#FAB443"/>
<path d="M47 9L37.6003 31.1027H32.6588L36.0964 23.4755L30 9H35.1295L38.594 18.3728L42.0316 9H47Z" fill="#1E6732"/>
</svg>


